<svg xmlns="http://www.w3.org/2000/svg" version="1.1" xmlns:xlink="http://www.w3.org/1999/xlink" xmlns:svgjs="http://svgjs.dev/svgjs" width="1920" height="1000" preserveAspectRatio="none" viewBox="0 0 1920 1000"><g mask="url(&quot;#SvgjsMask1139&quot;)" fill="none"><path d="M1180.51 963.41L1233.94 963.41L1233.94 999.02L1180.51 999.02z" fill="rgba(242, 201, 76, 0.1)"></path><path d="M130.17 389.94L198.39 389.94L198.39 458.16L130.17 458.16z" fill="rgba(242, 201, 76, 0.1)"></path><path d="M1053.5 468.94L1144.31 468.94L1144.31 499.96L1053.5 499.96z" stroke="rgba(242, 201, 76, 0.1)"></path><path d="M159.21 159.14L160.18 159.14L160.18 206.11L159.21 206.11z" stroke="rgba(74, 152, 245, 0.1)"></path><path d="M1223.75 116.51a54.52 54.52 0 1 0-58.05-92.31z" fill="rgba(74, 152, 245, 0.1)"></path><path d="M82 640.64L162.02 640.64L162.02 701.7L82 701.7z" fill="rgba(74, 152, 245, 0.1)"></path><path d="M699.49 741.22a19.64 19.64 0 1 0-31.31-23.72z" fill="rgba(131, 108, 203, 0.1)"></path><path d="M1597.44 806.89L1657.24 806.89L1657.24 866.69L1597.44 866.69z" fill="rgba(74, 152, 245, 0.1)"></path><path d="M580.52 599.76L622.75 599.76L622.75 665.88L580.52 665.88z" stroke="rgba(74, 152, 245, 0.1)"></path><path d="M1628.26 929.66a34.14 34.14 0 1 0 62.84-26.72z" stroke="rgba(131, 108, 203, 0.1)"></path><path d="M1088.12 107.59a14.16 14.16 0 1 0-27.64-6.21z" fill="rgba(74, 152, 245, 0.1)"></path><path d="M1850.31 929.75L1854.84 929.75L1854.84 953.84L1850.31 953.84z" stroke="rgba(242, 201, 76, 0.1)"></path><path d="M414.18 641.76L469.63 641.76L469.63 687.48L414.18 687.48z" stroke="rgba(74, 152, 245, 0.1)"></path><path d="M178.42 192.68L241.21 192.68L241.21 253.71L178.42 253.71z" fill="rgba(74, 152, 245, 0.1)"></path><path d="M1617.86 684.39a16.32 16.32 0 1 0-25.97 19.76z" stroke="rgba(242, 201, 76, 0.1)"></path><path d="M1215.81 253.93a60.89 60.89 0 1 0-114.14 42.44z" fill="rgba(242, 201, 76, 0.1)"></path><path d="M1833.8 90.75a91.3 91.3 0 1 0-180.14-29.82z" fill="rgba(131, 108, 203, 0.1)"></path><path d="M1021.51 531.58L1036.56 531.58L1036.56 546.63L1021.51 546.63z" fill="rgba(242, 201, 76, 0.1)"></path><path d="M1899.93 597.8L1995.51 597.8L1995.51 601.92L1899.93 601.92z" fill="rgba(74, 152, 245, 0.1)"></path><path d="M208.9 175.91L225.62 175.91L225.62 192.63L208.9 192.63z" fill="rgba(131, 108, 203, 0.1)"></path><path d="M1137.71 607.78 a85.36 85.36 0 1 0 170.72 0 a85.36 85.36 0 1 0 -170.72 0z" fill="rgba(131, 108, 203, 0.1)"></path><path d="M1272.51 674.72 a27.43 27.43 0 1 0 54.86 0 a27.43 27.43 0 1 0 -54.86 0z" fill="rgba(131, 108, 203, 0.1)"></path><path d="M1273.75 627.81 a83.64 83.64 0 1 0 167.28 0 a83.64 83.64 0 1 0 -167.28 0z" fill="rgba(242, 201, 76, 0.1)"></path><path d="M1424.5 331.16L1473.46 331.16L1473.46 380.12L1424.5 380.12z" fill="rgba(131, 108, 203, 0.1)"></path></g><defs><mask id="SvgjsMask1139"><rect width="1920" height="1000" fill="#ffffff"></rect></mask></defs></svg>